<svg width="23" height="23" viewBox="0 0 23 23" fill="none" xmlns="http://www.w3.org/2000/svg">
<rect width="23" height="23" rx="4" fill="#828282"/>
<path d="M16.1438 12.1125C16.1688 11.9125 16.1875 11.7125 16.1875 11.5C16.1875 11.2875 16.1688 11.0875 16.1438 10.8875L17.4625 9.85625C17.5813 9.7625 17.6125 9.59375 17.5375 9.45625L16.2875 7.29375C16.2125 7.15625 16.0438 7.10625 15.9063 7.15625L14.35 7.78125C14.025 7.53125 13.675 7.325 13.2938 7.16875L13.0563 5.5125C13.0375 5.3625 12.9063 5.25 12.75 5.25H10.25C10.0938 5.25 9.96252 5.3625 9.94377 5.5125L9.70627 7.16875C9.32502 7.325 8.97502 7.5375 8.65002 7.78125L7.09377 7.15625C6.95002 7.1 6.78752 7.15625 6.71252 7.29375L5.46252 9.45625C5.38127 9.59375 5.41877 9.7625 5.53752 9.85625L6.85627 10.8875C6.83127 11.0875 6.81252 11.2937 6.81252 11.5C6.81252 11.7063 6.83127 11.9125 6.85627 12.1125L5.53752 13.1438C5.41877 13.2375 5.38752 13.4063 5.46252 13.5438L6.71252 15.7062C6.78752 15.8437 6.95627 15.8938 7.09377 15.8438L8.65002 15.2188C8.97502 15.4688 9.32502 15.675 9.70627 15.8313L9.94377 17.4875C9.96252 17.6375 10.0938 17.75 10.25 17.75H12.75C12.9063 17.75 13.0375 17.6375 13.0563 17.4875L13.2938 15.8313C13.675 15.675 14.025 15.4625 14.35 15.2188L15.9063 15.8438C16.05 15.9 16.2125 15.8437 16.2875 15.7062L17.5375 13.5438C17.6125 13.4063 17.5813 13.2375 17.4625 13.1438L16.1438 12.1125V12.1125ZM11.5 13.6875C10.2938 13.6875 9.31252 12.7062 9.31252 11.5C9.31252 10.2938 10.2938 9.3125 11.5 9.3125C12.7063 9.3125 13.6875 10.2938 13.6875 11.5C13.6875 12.7062 12.7063 13.6875 11.5 13.6875Z" fill="white"/>
</svg>
