<svg width="23" height="23" viewBox="0 0 23 23" fill="none" xmlns="http://www.w3.org/2000/svg">
<rect width="23" height="23" rx="4" fill="#BDBDBD"/>
<g clip-path="url(#clip0)">
<path d="M4.66176 13.0445H9.07353C9.31718 13.0445 9.51471 13.242 9.51471 13.4856V17.8974C9.51471 18.1411 9.31718 18.3386 9.07353 18.3386H4.66176C4.41811 18.3386 4.22059 18.1411 4.22059 17.8974V13.4856C4.22059 13.242 4.41811 13.0445 4.66176 13.0445ZM16.0663 13.0328L18.9339 17.6652C19.1159 17.9591 18.9045 18.3386 18.5588 18.3386H12.8235C12.4779 18.3386 12.2665 17.9591 12.4484 17.6652L15.3161 13.0328C15.4885 12.7542 15.8938 12.7542 16.0663 13.0328ZM6.86765 10.3974C5.28389 10.3974 4 9.11351 4 7.52976C4 5.946 5.28389 4.66211 6.86765 4.66211C8.45141 4.66211 9.73529 5.946 9.73529 7.52976C9.73529 9.11351 8.45141 10.3974 6.86765 10.3974ZM16.3151 7.75034L18.4296 9.86486C18.6019 10.0371 18.6019 10.3165 18.4296 10.4888C18.2573 10.6611 17.978 10.6611 17.8057 10.4888L15.6912 8.37426L13.5767 10.4888C13.4044 10.6611 13.125 10.6611 12.9527 10.4888C12.7805 10.3165 12.7805 10.0371 12.9527 9.86486L15.0673 7.75034L12.9527 5.63583C12.7805 5.46354 12.7805 5.18421 12.9527 5.01191C13.125 4.83962 13.4044 4.83962 13.5767 5.01191L15.6912 7.12643L17.8057 5.01191C17.978 4.83962 18.2573 4.83962 18.4296 5.01191C18.6019 5.18421 18.6019 5.46354 18.4296 5.63583L16.3151 7.75034Z" fill="white"/>
</g>
<defs>
<clipPath id="clip0">
<rect width="15" height="15" fill="white" transform="translate(4 4)"/>
</clipPath>
</defs>
</svg>
