<svg width="23" height="23" viewBox="0 0 23 23" fill="none" xmlns="http://www.w3.org/2000/svg">
<rect width="23" height="23" rx="4" fill="#BB6BD9"/>
<path d="M11.5001 7.5C10.5659 7.50175 9.65826 7.82935 8.91758 8.43214C8.17691 9.03493 7.64444 9.87931 7.40254 10.8347C7.16063 11.7901 7.22276 12.8033 7.57931 13.7175C7.93586 14.6318 8.56698 15.3962 9.37505 15.8925V17.25C9.37505 17.8467 9.59893 18.419 9.99745 18.841C10.396 19.2629 10.9365 19.5 11.5001 19.5C12.0636 19.5 12.6041 19.2629 13.0027 18.841C13.4012 18.419 13.6251 17.8467 13.6251 17.25V15.8925C14.4331 15.3962 15.0642 14.6318 15.4208 13.7175C15.7773 12.8033 15.8395 11.7901 15.5976 10.8347C15.3557 9.87931 14.8232 9.03493 14.0825 8.43214C13.3418 7.82935 12.4342 7.50175 11.5001 7.5ZM12.2084 17.25C12.2084 17.4489 12.1338 17.6397 12.0009 17.7803C11.8681 17.921 11.6879 18 11.5001 18C11.3122 18 11.132 17.921 10.9992 17.7803C10.8663 17.6397 10.7917 17.4489 10.7917 17.25V16.4325C11.0259 16.4739 11.2627 16.4965 11.5001 16.5C11.7374 16.4965 11.9742 16.4739 12.2084 16.4325V17.25ZM11.5001 15C10.9397 15 10.3919 14.8241 9.92594 14.4944C9.46 14.1648 9.09684 13.6962 8.88239 13.1481C8.66794 12.5999 8.61183 11.9967 8.72116 11.4147C8.83048 10.8328 9.10033 10.2982 9.49658 9.87868C9.89283 9.45912 10.3977 9.1734 10.9473 9.05764C11.4969 8.94189 12.0666 9.0013 12.5843 9.22836C13.102 9.45542 13.5446 9.83994 13.8559 10.3333C14.1672 10.8266 14.3334 11.4067 14.3334 12C14.3334 12.7956 14.0349 13.5587 13.5035 14.1213C12.9722 14.6839 12.2515 15 11.5001 15Z" fill="white"/>
<path d="M11.5001 6.75C11.6879 6.75 11.8681 6.67098 12.0009 6.53033C12.1338 6.38968 12.2084 6.19891 12.2084 6V5.25C12.2084 5.05109 12.1338 4.86032 12.0009 4.71967C11.8681 4.57902 11.6879 4.5 11.5001 4.5C11.3122 4.5 11.1321 4.57902 10.9992 4.71967C10.8664 4.86032 10.7917 5.05109 10.7917 5.25V6C10.7917 6.19891 10.8664 6.38968 10.9992 6.53033C11.1321 6.67098 11.3122 6.75 11.5001 6.75Z" fill="white"/>
<path d="M17.8752 10.5H17.1668C16.979 10.5 16.7988 10.579 16.666 10.7197C16.5331 10.8603 16.4585 11.0511 16.4585 11.25C16.4585 11.4489 16.5331 11.6397 16.666 11.7803C16.7988 11.921 16.979 12 17.1668 12H17.8752C18.063 12 18.2432 11.921 18.376 11.7803C18.5089 11.6397 18.5835 11.4489 18.5835 11.25C18.5835 11.0511 18.5089 10.8603 18.376 10.7197C18.2432 10.579 18.063 10.5 17.8752 10.5Z" fill="white"/>
<path d="M5.83342 10.5H5.12508C4.93722 10.5 4.75705 10.579 4.62421 10.7197C4.49138 10.8603 4.41675 11.0511 4.41675 11.25C4.41675 11.4489 4.49138 11.6397 4.62421 11.7803C4.75705 11.921 4.93722 12 5.12508 12H5.83342C6.02128 12 6.20144 11.921 6.33428 11.7803C6.46712 11.6397 6.54175 11.4489 6.54175 11.25C6.54175 11.0511 6.46712 10.8603 6.33428 10.7197C6.20144 10.579 6.02128 10.5 5.83342 10.5Z" fill="white"/>
<path d="M8.00073 7.91954C8.13265 7.77902 8.2067 7.58893 8.2067 7.39079C8.2067 7.19265 8.13265 7.00256 8.00073 6.86204L7.49781 6.32954C7.43431 6.25103 7.35617 6.18726 7.26829 6.14225C7.18041 6.09723 7.08469 6.07193 6.98714 6.06794C6.88959 6.06395 6.79231 6.08136 6.70141 6.11906C6.61052 6.15677 6.52796 6.21396 6.45893 6.28705C6.3899 6.36014 6.33588 6.44755 6.30027 6.5438C6.26466 6.64004 6.24822 6.74304 6.25199 6.84633C6.25576 6.94962 6.27965 7.05097 6.32217 7.14402C6.36469 7.23707 6.42491 7.3198 6.49906 7.38704L7.00198 7.91954C7.13469 8.05923 7.31422 8.13763 7.50135 8.13763C7.68848 8.13763 7.86801 8.05923 8.00073 7.91954Z" fill="white"/>
<path d="M16.5011 6.32991C16.3684 6.19022 16.1889 6.11182 16.0017 6.11182C15.8146 6.11182 15.6351 6.19022 15.5024 6.32991L14.9994 6.86241C14.8675 7.00293 14.7935 7.19302 14.7935 7.39116C14.7935 7.5893 14.8675 7.77939 14.9994 7.91991C15.1321 8.0596 15.3117 8.13801 15.4988 8.13801C15.6859 8.13801 15.8655 8.0596 15.9982 7.91991L16.5011 7.38741C16.633 7.24689 16.7071 7.0568 16.7071 6.85866C16.7071 6.66052 16.633 6.47043 16.5011 6.32991Z" fill="white"/>
</svg>
