<svg width="281" height="281" viewBox="0 0 281 281" fill="none" xmlns="http://www.w3.org/2000/svg">
<circle cx="140.5" cy="140.5" r="140.5" fill="#E3F2FD"/>
<path d="M121.667 131.834H107.917V118.084H98.75V131.834H85V141H98.75V154.75H107.917V141H121.667V131.834ZM167.5 136.417C175.108 136.417 181.204 130.275 181.204 122.667C181.204 115.059 175.108 108.917 167.5 108.917C166.033 108.917 164.613 109.146 163.329 109.559C165.942 113.271 167.454 117.763 167.454 122.667C167.454 127.571 165.896 132.017 163.329 135.775C164.613 136.188 166.033 136.417 167.5 136.417ZM144.583 136.417C152.192 136.417 158.287 130.275 158.287 122.667C158.287 115.059 152.192 108.917 144.583 108.917C136.975 108.917 130.833 115.059 130.833 122.667C130.833 130.275 136.975 136.417 144.583 136.417ZM174.925 146.317C178.729 149.663 181.25 153.925 181.25 159.334V168.5H195V159.334C195 152.275 184.138 147.921 174.925 146.317ZM144.583 145.584C135.417 145.584 117.083 150.167 117.083 159.334V168.5H172.083V159.334C172.083 150.167 153.75 145.584 144.583 145.584Z" fill="white"/>
</svg>
