<svg width="23" height="23" viewBox="0 0 23 23" fill="none" xmlns="http://www.w3.org/2000/svg">
<rect width="23" height="23" rx="4" fill="#00C853"/>
<path d="M16.3299 4.36963H6.66987C6.05987 4.36963 5.47486 4.61195 5.04353 5.04328C4.61219 5.47462 4.36987 6.05963 4.36987 6.66963V16.3296C4.36987 16.9396 4.61219 17.5246 5.04353 17.956C5.47486 18.3873 6.05987 18.6296 6.66987 18.6296H16.3299C16.9399 18.6296 17.5249 18.3873 17.9562 17.956C18.3875 17.5246 18.6299 16.9396 18.6299 16.3296V6.66963C18.6299 6.05963 18.3875 5.47462 17.9562 5.04328C17.5249 4.61195 16.9399 4.36963 16.3299 4.36963ZM6.20987 6.66963C6.20987 6.54763 6.25834 6.43063 6.3446 6.34436C6.43087 6.25809 6.54787 6.20963 6.66987 6.20963H12.6499V8.50963H6.20987V6.66963ZM6.20987 10.3496H12.6499V12.6496H6.20987V10.3496ZM6.20987 16.3296V14.4896H12.6499V16.7896H6.66987C6.54787 16.7896 6.43087 16.7412 6.3446 16.6549C6.25834 16.5686 6.20987 16.4516 6.20987 16.3296ZM16.7899 16.3296C16.7899 16.4516 16.7414 16.5686 16.6551 16.6549C16.5689 16.7412 16.4519 16.7896 16.3299 16.7896H14.4899V14.4896H16.7899V16.3296ZM16.7899 12.6496H14.4899V10.3496H16.7899V12.6496ZM16.7899 8.50963H14.4899V6.20963H16.3299C16.4519 6.20963 16.5689 6.25809 16.6551 6.34436C16.7414 6.43063 16.7899 6.54763 16.7899 6.66963V8.50963Z" fill="white"/>
</svg>
