<svg width="30" height="30" viewBox="0 0 30 30" fill="none" xmlns="http://www.w3.org/2000/svg">
<rect width="30" height="30" rx="4" fill="#ED7D31"/>
<path d="M24.7589 12.9037L24.783 16.1039L20.4611 20.4262H20.4292V9.57327L24.7732 5.23145L24.7563 12.9056L24.7589 12.9037Z" fill="white"/>
<path d="M17.2322 9.54414L20.434 9.56822L24.7585 5.24592V5.21729H13.9001L9.55615 9.55651L17.2348 9.54219L17.2322 9.54414Z" fill="white"/>
<path d="M5.24138 17.0932L5.21729 13.8955L9.54174 9.57324H9.57104V20.4262L5.22705 24.7654L5.24398 17.0906L5.24138 17.0932Z" fill="white"/>
<path d="M12.7673 20.4523L9.56811 20.4282L5.24365 24.7505V24.7824L16.102 24.7798L20.4434 20.4406L12.7647 20.4549L12.7673 20.4523Z" fill="white"/>
</svg>
