<svg width="23" height="23" viewBox="0 0 23 23" fill="none" xmlns="http://www.w3.org/2000/svg">
<rect x="0.75" y="0.75" width="21.5" height="21.5" rx="3.25" fill="#00B0FF" stroke="#00B0FF" stroke-width="1.5"/>
<path fill-rule="evenodd" clip-rule="evenodd" d="M4.16814 9.17164C5.72566 7.60945 8.25067 7.60945 9.80799 9.17164L11.5001 10.8686L13.192 9.17164C14.7493 7.60965 17.2745 7.60965 18.8319 9.17164C20.3894 10.7338 20.3894 13.2664 18.8319 14.8284C17.2745 16.3905 14.7493 16.3905 13.192 14.8284L11.5001 13.1314L9.80799 14.8284C8.25067 16.3905 5.72566 16.3905 4.16814 14.8284C2.61062 13.2664 2.61062 10.7338 4.16814 9.17164ZM14.32 10.303L12.6281 12L14.32 13.6972C15.253 14.633 16.7711 14.633 17.7039 13.6972C18.6368 12.7614 18.6368 11.2388 17.7039 10.303C16.7711 9.36743 15.253 9.36723 14.32 10.303ZM5.29615 10.303C4.36315 11.2386 4.36315 12.7612 5.29615 13.697C6.22894 14.633 7.74718 14.633 8.67998 13.697L10.3721 12L8.67998 10.303C7.74718 9.36723 6.22894 9.36723 5.29615 10.303Z" fill="white"/>
</svg>
